<svg width="605" height="100" viewBox="0 0 605 100" fill="none" xmlns="http://www.w3.org/2000/svg">
<path d="M40.9804 64.2003L42.4616 63.1305C44.3269 62.0333 45.6435 61.4847 46.4116 61.4847C48.1122 61.4847 49.95 63.0208 51.925 66.093C53.1319 68.0131 53.7354 69.5492 53.7354 70.7012C53.7354 71.8533 53.3514 72.8133 52.5833 73.5814C51.8701 74.3494 51.0198 75.0352 50.0323 75.6386C49.0448 76.2421 48.0848 76.8181 47.1522 77.3667C46.2744 77.9153 44.4366 78.6285 41.6387 79.5063C38.8409 80.384 36.1253 80.8229 33.492 80.8229C30.9136 80.8229 28.2803 80.4937 25.5922 79.8354C22.9589 79.1222 20.2159 77.9702 17.3632 76.3792C14.5653 74.7334 12.0418 72.7585 9.79251 70.4544C7.54325 68.0954 5.67801 65.1055 4.19679 61.4847C2.77043 57.8091 2.05725 53.8318 2.05725 49.5527C2.05725 45.2736 2.77043 41.406 4.19679 37.9498C5.62315 34.4388 7.43353 31.5586 9.62793 29.3094C11.8772 27.0052 14.4282 25.0851 17.2809 23.5491C22.6572 20.5866 28.0609 19.1054 33.492 19.1054C36.0705 19.1054 38.6763 19.5168 41.3096 20.3397C43.9977 21.1078 46.0275 21.9033 47.399 22.7262L49.374 23.8782C50.3615 24.4817 51.1295 24.9754 51.6781 25.3594C53.1045 26.5115 53.8177 27.8281 53.8177 29.3094C53.8177 30.7357 53.2416 32.2444 52.0896 33.8353C49.95 36.7977 48.0299 38.279 46.3293 38.279C45.3418 38.279 43.9429 37.6755 42.1325 36.4686C39.8284 34.6033 36.7562 33.6707 32.916 33.6707C29.3501 33.6707 25.8391 34.9051 22.3829 37.3738C20.7371 38.5807 19.3656 40.2814 18.2684 42.4758C17.1712 44.6702 16.6226 47.1663 16.6226 49.9641C16.6226 52.7071 17.1712 55.1758 18.2684 57.3702C19.3656 59.5646 20.7645 61.2927 22.4652 62.5545C25.8116 64.9684 29.2952 66.1753 32.916 66.1753C34.6167 66.1753 36.2076 65.9558 37.6888 65.517C39.2249 65.0781 40.3221 64.6392 40.9804 64.2003ZM91.565 18.9408C99.6843 18.9408 106.734 21.8758 112.714 27.7458C118.693 33.6159 121.683 40.9122 121.683 49.635C121.683 58.3029 118.83 65.709 113.125 71.8533C107.42 77.9427 100.397 80.9875 92.0587 80.9875C83.72 80.9875 76.6156 77.9702 70.7456 71.9356C64.9305 65.901 62.0229 58.7143 62.0229 50.3756C62.0229 45.8222 62.8458 41.5706 64.4916 37.6206C66.1374 33.6159 68.3318 30.2694 71.0748 27.5813C73.8178 24.8931 76.9722 22.781 80.5381 21.2449C84.104 19.7089 87.7796 18.9408 91.565 18.9408ZM76.5882 49.9641C76.5882 54.8467 78.1517 58.824 81.2787 61.8962C84.4606 64.9135 87.9991 66.4221 91.8941 66.4221C95.7892 66.4221 99.3002 64.9409 102.427 61.9785C105.554 59.016 107.118 55.0387 107.118 50.0464C107.118 45.0542 105.527 41.0494 102.345 38.0321C99.218 35.0148 95.7069 33.5061 91.8119 33.5061C87.9168 33.5061 84.4058 35.0422 81.2787 38.1144C78.1517 41.1317 76.5882 45.0816 76.5882 49.9641ZM138.502 19.5991L153.726 19.6814C161.681 19.6814 168.675 22.5616 174.71 28.3219C180.745 34.0273 183.762 41.0768 183.762 49.4704C183.762 57.8091 180.799 64.9684 174.875 70.9481C169.005 76.9278 161.873 79.9177 153.479 79.9177H138.42C135.074 79.9177 132.989 79.232 132.166 77.8605C131.508 76.7084 131.179 74.9529 131.179 72.5939V26.8407C131.179 25.524 131.206 24.564 131.261 23.9605C131.371 23.357 131.645 22.6439 132.084 21.821C132.852 20.3397 134.991 19.5991 138.502 19.5991ZM153.726 65.3524C157.676 65.3524 161.242 63.8986 164.424 60.991C167.606 58.0286 169.197 54.3255 169.197 49.8819C169.197 45.4382 167.633 41.7351 164.506 38.7727C161.434 35.7554 157.813 34.2468 153.644 34.2468H145.744V65.3524H153.726ZM207.799 65.4347H233.144C234.406 65.4347 235.339 65.4895 235.942 65.5992C236.6 65.6541 237.341 65.901 238.164 66.3399C239.645 67.1079 240.386 69.2474 240.386 72.7585C240.386 76.5987 239.371 78.8479 237.341 79.5063C236.408 79.8354 234.982 80 233.062 80H200.475C196.635 80 194.386 78.9577 193.727 76.873C193.398 75.9952 193.234 74.5963 193.234 72.6762V26.9229C193.234 24.1251 193.755 22.2324 194.797 21.2449C195.839 20.2026 197.814 19.6814 200.722 19.6814H233.144C234.406 19.6814 235.339 19.7363 235.942 19.846C236.6 19.9009 237.341 20.1477 238.164 20.5866C239.645 21.3547 240.386 23.4942 240.386 27.0052C240.386 30.8454 239.371 33.0947 237.341 33.753C236.408 34.0822 234.982 34.2468 233.062 34.2468H207.799V42.558H224.092C225.354 42.558 226.287 42.6129 226.89 42.7226C227.549 42.7775 228.289 43.0244 229.112 43.4632C230.593 44.2313 231.334 46.3708 231.334 49.8819C231.334 53.7221 230.292 55.9713 228.207 56.6296C227.274 56.9588 225.848 57.1234 223.928 57.1234H207.799V65.4347ZM281.259 43.6278H295.742C298.704 43.7375 300.515 44.5056 301.173 45.9319C301.722 46.9743 301.996 48.5104 301.996 50.5402V68.644C301.996 70.3995 301.228 72.0727 299.692 73.6637C295.084 78.4365 288.171 80.8229 278.955 80.8229C270.781 80.8229 263.676 77.7507 257.642 71.6064C251.607 65.4072 248.59 57.9463 248.59 49.2235C248.59 40.5008 251.662 33.2318 257.806 27.4167C263.951 21.5467 271.192 18.6117 279.531 18.6117C286.004 18.6117 292.121 20.7512 297.881 25.0303C299.363 26.1275 300.103 27.3618 300.103 28.7333C300.103 30.05 299.472 31.586 298.211 33.3416C296.071 36.2491 294.124 37.7029 292.368 37.7029C291.326 37.7029 289.652 36.9623 287.348 35.4811C285.044 33.945 282.301 33.177 279.119 33.177C274.95 33.177 271.247 34.6582 268.01 37.6206C264.773 40.5282 263.155 44.3684 263.155 49.1412C263.155 53.8592 264.801 57.8914 268.092 61.2379C271.384 64.5295 275.115 66.1753 279.284 66.1753C282.301 66.1753 285.017 65.6815 287.431 64.6941V55.7244H280.93C279.229 55.7244 278.022 55.505 277.309 55.0661C276.596 54.6272 276.129 53.9964 275.91 53.1735C275.691 52.2957 275.581 51.1436 275.581 49.7173C275.581 48.2361 275.691 47.0566 275.91 46.1788C276.184 45.301 276.651 44.6976 277.309 44.3684C278.296 43.8747 279.613 43.6278 281.259 43.6278ZM358.847 69.796C359.67 71.771 360.082 73.1974 360.082 74.0751C360.082 76.1598 358.381 77.9153 354.98 79.3417C353.224 80.1097 351.798 80.4937 350.701 80.4937C349.658 80.4937 348.781 80.2469 348.067 79.7531C347.409 79.2045 346.915 78.6559 346.586 78.1073C346.038 77.065 343.898 72.1002 340.168 63.2128L337.617 63.3774H327.248V72.6762C327.248 73.938 327.193 74.898 327.083 75.5563C327.029 76.1598 326.782 76.873 326.343 77.6959C325.575 79.1771 323.435 79.9177 319.924 79.9177C316.084 79.9177 313.835 78.9028 313.176 76.873C312.847 75.9404 312.683 74.514 312.683 72.5939V26.9229C312.683 25.6612 312.71 24.7285 312.765 24.1251C312.875 23.4668 313.149 22.7262 313.588 21.9033C314.356 20.422 316.495 19.6814 320.007 19.6814H337.781C342.609 19.6814 347.299 21.4369 351.853 24.948C354.047 26.6486 355.858 28.9528 357.284 31.8603C358.71 34.7679 359.423 38.0047 359.423 41.5706C359.423 47.7697 357.366 52.8717 353.252 56.8765C354.459 59.7841 356.324 64.0906 358.847 69.796ZM327.248 48.8121H337.781C339.372 48.8121 340.963 48.2086 342.554 47.0017C344.145 45.7948 344.94 43.9844 344.94 41.5706C344.94 39.1567 344.145 37.3463 342.554 36.1394C340.963 34.8776 339.317 34.2468 337.617 34.2468H327.248V48.8121ZM383.276 65.4347H408.621C409.883 65.4347 410.816 65.4895 411.419 65.5992C412.077 65.6541 412.818 65.901 413.641 66.3399C415.122 67.1079 415.863 69.2474 415.863 72.7585C415.863 76.5987 414.848 78.8479 412.818 79.5063C411.885 79.8354 410.459 80 408.539 80H375.952C372.112 80 369.863 78.9577 369.204 76.873C368.875 75.9952 368.711 74.5963 368.711 72.6762V26.9229C368.711 24.1251 369.232 22.2324 370.274 21.2449C371.316 20.2026 373.291 19.6814 376.199 19.6814H408.621C409.883 19.6814 410.816 19.7363 411.419 19.846C412.077 19.9009 412.818 20.1477 413.641 20.5866C415.122 21.3547 415.863 23.4942 415.863 27.0052C415.863 30.8454 414.848 33.0947 412.818 33.753C411.885 34.0822 410.459 34.2468 408.539 34.2468H383.276V42.558H399.569C400.831 42.558 401.764 42.6129 402.367 42.7226C403.026 42.7775 403.766 43.0244 404.589 43.4632C406.07 44.2313 406.811 46.3708 406.811 49.8819C406.811 53.7221 405.769 55.9713 403.684 56.6296C402.751 56.9588 401.325 57.1234 399.405 57.1234H383.276V65.4347ZM439.866 65.4347H465.212C466.474 65.4347 467.406 65.4895 468.01 65.5992C468.668 65.6541 469.409 65.901 470.231 66.3399C471.713 67.1079 472.453 69.2474 472.453 72.7585C472.453 76.5987 471.438 78.8479 469.409 79.5063C468.476 79.8354 467.05 80 465.129 80H432.543C428.702 80 426.453 78.9577 425.795 76.873C425.466 75.9952 425.301 74.5963 425.301 72.6762V26.9229C425.301 24.1251 425.822 22.2324 426.865 21.2449C427.907 20.2026 429.882 19.6814 432.789 19.6814H465.212C466.474 19.6814 467.406 19.7363 468.01 19.846C468.668 19.9009 469.409 20.1477 470.231 20.5866C471.713 21.3547 472.453 23.4942 472.453 27.0052C472.453 30.8454 471.438 33.0947 469.409 33.753C468.476 34.0822 467.05 34.2468 465.129 34.2468H439.866V42.558H456.16C457.422 42.558 458.354 42.6129 458.958 42.7226C459.616 42.7775 460.357 43.0244 461.18 43.4632C462.661 44.2313 463.401 46.3708 463.401 49.8819C463.401 53.7221 462.359 55.9713 460.274 56.6296C459.342 56.9588 457.915 57.1234 455.995 57.1234H439.866V65.4347ZM520.815 22.2324C521.363 21.2449 522.159 20.5866 523.201 20.2575C524.243 19.9283 525.533 19.7637 527.069 19.7637C528.66 19.7637 529.921 19.9009 530.854 20.1752C531.842 20.4495 532.555 20.7786 532.994 21.1626C533.487 21.5467 533.844 22.1227 534.063 22.8907C534.393 23.7685 534.557 25.1674 534.557 27.0875V72.7585C534.557 74.0751 534.502 75.0352 534.393 75.6386C534.338 76.2421 534.091 76.9553 533.652 77.7782C532.884 79.2594 530.744 80 527.233 80C525.094 80 523.613 79.8354 522.79 79.5063C521.967 79.1771 521.281 78.6559 520.732 77.9427C508.389 61.4847 500.27 50.7322 496.375 45.6851V72.7585C496.375 74.0751 496.32 75.0352 496.21 75.6386C496.155 76.2421 495.908 76.9553 495.469 77.7782C494.701 79.2594 492.562 80 489.051 80C485.649 80 483.565 79.2594 482.797 77.7782C482.358 76.9553 482.084 76.2147 481.974 75.5563C481.919 74.898 481.892 73.938 481.892 72.6762V26.7584C481.892 24.6737 482.138 23.165 482.632 22.2324C483.181 21.2449 483.976 20.5866 485.019 20.2575C486.061 19.9283 487.405 19.7637 489.051 19.7637C490.697 19.7637 491.986 19.9283 492.918 20.2575C493.906 20.5318 494.592 20.8609 494.976 21.2449C495.195 21.4095 495.826 22.1227 496.868 23.3845C508.444 39.1293 516.179 49.5253 520.074 54.5724V26.7584C520.074 24.6737 520.321 23.165 520.815 22.2324Z" fill="#F2F2F2"/>
<path d="M605 49C605 66.1208 591.121 80 574 80C556.879 80 543 66.1208 543 49C543 31.8792 556.879 18 574 18C591.121 18 605 31.8792 605 49Z" fill="#209F56"/>
</svg>
